<?xml version="1.0" encoding="UTF-8"?>
<!DOCTYPE svg PUBLIC "-//W3C//DTD SVG 1.1//EN" "http://www.w3.org/Graphics/SVG/1.1/DTD/svg11.dtd">
<!-- Creator: CorelDRAW X7 -->
<svg xmlns="http://www.w3.org/2000/svg" xml:space="preserve" width="8.2572mm" height="11.6548mm" version="1.1" style="shape-rendering:geometricPrecision; text-rendering:geometricPrecision; image-rendering:optimizeQuality; fill-rule:evenodd; clip-rule:evenodd"
viewBox="0 0 193 272"
 xmlns:xlink="http://www.w3.org/1999/xlink">
 <defs>
  <style type="text/css">
   <![CDATA[
    .fil0 {fill:#29166A}
    .fil2 {fill:#F4ED24}
    .fil1 {fill:#FCF40B}
   ]]>
  </style>
 </defs>
 <g id="Layer_x0020_1">
  <metadata id="CorelCorpID_0Corel-Layer"/>
  <g id="_721412240">
   <path class="fil0" d="M45 188c4,-1 9,-3 14,-1 4,2 4,5 11,2 26,-8 24,-10 51,0 8,2 8,0 14,-2 5,-2 8,0 13,1 3,-3 7,-8 13,-3 6,6 1,12 -4,14 4,13 1,3 -2,12 -1,3 2,1 -1,4 -4,4 -5,1 -11,3 -4,1 -6,3 -10,4 -12,1 -15,-2 -23,-5 -12,6 -12,9 -27,0 -16,8 -19,5 -32,1 -5,-2 -6,0 -9,-1 -5,-2 -4,-6 -4,-7 -2,-6 -7,0 -2,-10 -13,-6 -4,-26 9,-12zm19 -23l1 -36c1,-13 13,-5 13,-4 1,12 1,22 0,35 -4,2 -8,5 -14,5zm-22 -78l16 2 -1 21c-4,2 -9,3 -9,10 -1,10 7,9 10,11l0 34c-8,-1 -11,-6 -16,-9 2,-12 2,-21 2,-34l0 -27c0,-4 -1,-5 -2,-8zm38 -10c8,2 15,8 17,16 3,14 -4,18 -8,25 9,6 15,19 10,34 -8,25 -41,34 -60,18 -6,-6 -16,-22 -9,-34 2,3 3,8 7,15 3,5 6,8 11,12 9,6 24,5 32,-3 16,-13 8,-41 -11,-39 -10,1 -5,8 -16,7 -6,-7 -4,-13 1,-16 7,-3 39,6 33,-16 -2,-10 -8,-1 -7,-19zm61 1l24 0 -1 6c-7,1 -6,0 -9,5l-15 26c5,4 8,5 12,11 7,15 -7,55 21,40 -4,10 -23,18 -28,-3 -4,-16 5,-35 -13,-38 -1,13 -2,34 3,44 -20,1 -16,-21 -16,-38 0,-9 0,-18 0,-27 0,-5 0,-10 0,-14 0,-10 -3,-2 -3,-12l21 0c0,9 0,3 -6,8l1 23c3,-4 13,-20 15,-25l-6 -1 0 -5zm-78 9c-14,1 -30,0 -33,-13 13,4 18,5 34,4l-1 9zm36 -25l29 0 1 5c-7,4 -6,-9 -28,34 11,10 16,5 15,38 0,26 3,28 22,33 -8,6 -28,7 -32,-16 -1,-9 0,-18 -1,-27 0,-15 -6,-14 -9,-17 1,-3 3,-8 3,-12 0,-4 -2,-9 -2,-12 1,-6 10,-13 10,-20l-8 -1 0 -5zm-10 5c-3,2 -6,0 -11,4l0 39 -13 0 0 -40c-8,-4 -10,0 -10,-9l34 0 0 6zm-2 -53c-73,14 -97,140 -49,210 54,78 148,18 142,-98 -2,-30 -11,-58 -25,-78 -11,-16 -36,-40 -68,-34z"/>
   <path class="fil0" d="M9 149c-4,-62 25,-129 75,-139 75,-15 130,106 83,202 -26,54 -87,74 -130,17 -15,-20 -26,-48 -28,-80zm-9 -4c3,38 12,64 29,88 13,18 40,43 76,38 90,-11 116,-170 52,-240 -8,-9 -7,-10 -23,-20 -72,-43 -140,47 -134,134z"/>
   <path class="fil1" d="M45 188c-13,-14 -22,6 -9,12 -5,10 0,4 2,10 0,1 -1,5 4,7 3,1 4,-1 9,1 13,4 16,7 32,-1 15,9 15,6 27,0 8,3 11,6 23,5 4,-1 6,-3 10,-4 6,-2 7,1 11,-3 3,-3 0,-1 1,-4 3,-9 6,1 2,-12 5,-2 10,-8 4,-14 -6,-5 -10,0 -13,3 -5,-1 -8,-3 -13,-1 -6,2 -6,4 -14,2 -27,-10 -25,-8 -51,0 -7,3 -7,0 -11,-2 -5,-2 -10,0 -14,1z"/>
   <path class="fil2" d="M87 14c32,-6 57,18 68,34 14,20 23,48 25,78 6,116 -88,176 -142,98 -48,-70 -24,-196 49,-210zm-78 135c2,32 13,60 28,80 43,57 104,37 130,-17 47,-96 -8,-217 -83,-202 -50,10 -79,77 -75,139z"/>
   <path class="fil1" d="M141 83l6 1c-2,5 -12,21 -15,25l-1 -23c6,-5 6,1 6,-8l-21 0c0,10 3,2 3,12 0,4 0,9 0,14 0,9 0,18 0,27 0,17 -4,39 16,38 -5,-10 -4,-31 -3,-44 18,3 9,22 13,38 5,21 24,13 28,3 -28,15 -14,-25 -21,-40 -4,-6 -7,-7 -12,-11l15 -26c3,-5 2,-4 9,-5l1 -6 -24 0 0 5z"/>
   <path class="fil1" d="M99 152c5,-15 -1,-28 -10,-34 4,-7 11,-11 8,-25 -2,-8 -9,-14 -17,-16 -1,18 5,9 7,19 6,22 -26,13 -33,16 -5,3 -7,9 -1,16 11,1 6,-6 16,-7 19,-2 27,26 11,39 -8,8 -23,9 -32,3 -5,-4 -8,-7 -11,-12 -4,-7 -5,-12 -7,-15 -7,12 3,28 9,34 19,16 52,7 60,-18z"/>
   <path class="fil1" d="M101 101c22,-43 21,-30 28,-34l-1 -5 -29 0 0 5 8 1c0,7 -9,14 -10,20 0,3 2,8 2,12 0,4 -2,9 -3,12 3,3 9,2 9,17 1,9 0,18 1,27 4,23 24,22 32,16 -19,-5 -22,-7 -22,-33 1,-33 -4,-28 -15,-38z"/>
   <path class="fil1" d="M58 89l-16 -2c1,3 2,4 2,8l0 27c0,13 0,22 -2,34 5,3 8,8 16,9l0 -34c-3,-2 -11,-1 -10,-11 0,-7 5,-8 9,-10l1 -21z"/>
   <path class="fil1" d="M65 70l0 40 13 0 0 -39c5,-4 8,-2 11,-4l0 -6 -34 0c0,9 2,5 10,9z"/>
   <path class="fil1" d="M64 165c6,0 10,-3 14,-5 1,-13 1,-23 0,-35 0,-1 -12,-9 -13,4l-1 36z"/>
   <path class="fil1" d="M63 87l1 -9c-16,1 -21,0 -34,-4 3,13 19,14 33,13z"/>
   <path class="fil0" d="M50 203l2 -1 2 5c0,0 0,1 0,1 0,1 0,1 0,2 -1,0 -1,0 -2,1 -1,0 -2,0 -2,0 -1,0 -1,-1 -2,-2l2 0c0,0 0,0 1,0 0,0 0,1 1,0 0,0 0,0 0,0 0,0 0,-1 0,-1l-2 -5zm15 3l-2 1 -1 -2 -4 1 0 2 -2 1 1 -8 2 -1 6 6zm-4 -2l-2 -2 -1 3 3 -1zm5 2l-3 -7 2 0 2 5 1 -6 2 0 3 5 0 -6 2 0 -1 8 -2 0 -3 -5 0 6 -3 0zm19 -3l-2 1 -1 -2 -4 0 0 2 -2 0 2 -7 2 -1 5 7zm-4 -2l-1 -3 -1 3 2 0zm10 2l0 -6 -2 0 0 -1 7 0 0 1 -3 0 0 6 -2 0zm6 0l1 -7 7 0 0 1 -5 0 -1 2 5 0 0 1 -5 0 0 2 6 0 0 2 -8 -1zm9 1l1 -8 2 0 3 6 1 -5 1 0 0 7 -2 0 -4 -5 0 5 -2 0zm15 -1l0 -2 4 1 -1 3c0,0 -1,1 -2,1 -1,0 -1,0 -2,0 -1,-1 -2,-1 -2,-1 -1,-1 -2,-1 -2,-2 0,-1 0,-1 0,-2 0,-1 1,-2 1,-2 1,-1 1,-1 2,-1 1,0 2,0 3,0 1,0 2,0 2,1 1,0 1,1 1,2l-2 0c0,-1 0,-1 0,-1 -1,-1 -1,-1 -2,-1 -1,0 -1,0 -2,0 0,1 -1,1 -1,2 0,1 0,2 0,2 1,1 1,1 2,1 0,0 1,0 1,0 1,0 1,0 1,0l1 -1 -2 0zm13 6l-2 -1 0 -2 -4 -1 -1 2 -2 -1 6 -6 2 1 1 8zm-3 -4l0 -3 -2 2 2 1zm4 4l3 -7 2 1 -1 3 3 1 1 -2 2 0 -3 7 -2 -1 1 -3 -3 -1 -2 3 -1 -1z"/>
  </g>
 </g>
</svg>
